<?xml version="1.0" encoding="UTF-8" standalone="no"?>
<!-- Created with Inkscape (http://www.inkscape.org/) -->

<svg
   xmlns:dc="http://purl.org/dc/elements/1.1/"
   xmlns:cc="http://creativecommons.org/ns#"
   xmlns:rdf="http://www.w3.org/1999/02/22-rdf-syntax-ns#"
   xmlns:svg="http://www.w3.org/2000/svg"
   xmlns="http://www.w3.org/2000/svg"
   xmlns:sodipodi="http://sodipodi.sourceforge.net/DTD/sodipodi-0.dtd"
   xmlns:inkscape="http://www.inkscape.org/namespaces/inkscape"
   width="960"
   height="800"
   id="svg2"
   version="1.1"
   inkscape:version="0.48.2 r9819"
   sodipodi:docname="comps.svg">
  <defs
     id="defs4">
    <inkscape:perspective
       sodipodi:type="inkscape:persp3d"
       inkscape:vp_x="0 : 400 : 1"
       inkscape:vp_y="0 : 1000 : 0"
       inkscape:vp_z="960 : 400 : 1"
       inkscape:persp3d-origin="480 : 266.66667 : 1"
       id="perspective3822" />
  </defs>
  <sodipodi:namedview
     id="base"
     pagecolor="#ffffff"
     bordercolor="#666666"
     borderopacity="1.0"
     inkscape:pageopacity="0.0"
     inkscape:pageshadow="2"
     inkscape:zoom="2"
     inkscape:cx="1060.7813"
     inkscape:cy="-226.46899"
     inkscape:document-units="px"
     inkscape:current-layer="layer1"
     showgrid="false"
     inkscape:window-width="1280"
     inkscape:window-height="752"
     inkscape:window-x="0"
     inkscape:window-y="0"
     inkscape:window-maximized="1">
    <inkscape:grid
       type="xygrid"
       id="grid2985"
       empspacing="5"
       visible="true"
       enabled="true"
       snapvisiblegridlinesonly="true"
       color="#000000"
       opacity="0.0627451"
       empcolor="#000000"
       empopacity="0.1254902" />
  </sodipodi:namedview>
  <metadata
     id="metadata7">
    <rdf:RDF>
      <cc:Work
         rdf:about="">
        <dc:format>image/svg+xml</dc:format>
        <dc:type
           rdf:resource="http://purl.org/dc/dcmitype/StillImage" />
        <dc:title></dc:title>
      </cc:Work>
    </rdf:RDF>
  </metadata>
  <g
     inkscape:label="Layer 1"
     inkscape:groupmode="layer"
     id="layer1"
     transform="translate(0,-252.36218)">
    <rect
       style="color:#000000;fill:#a51a36;fill-opacity:0.99607843;stroke:none;stroke-width:7;marker:none;visibility:visible;display:inline;overflow:visible;enable-background:accumulate"
       id="rect3873"
       width="760"
       height="640"
       x="0"
       y="272.36218" />
    <path
       style="color:#000000;fill:none;stroke:#ffffff;stroke-width:7;stroke-opacity:1;marker:none;visibility:visible;display:inline;overflow:visible;enable-background:accumulate"
       d="m 200.00001,340.26321 c -5.54002,0 -10.00001,4.46 -10,9.99998 L 190,444.51321 c -29.18331,10.25354 -49.99999,37.97577 -50,70.74999 l 1e-5,160.00001 c -1e-5,1.15191 0.0429,2.29857 0.0937,3.4375 0.002,0.0415 -0.002,0.0837 7e-5,0.12499 -0.055,0.47234 -0.0938,0.95952 -0.0938,1.4375 l 1e-5,80 c 0,16.62001 33.45,30 75,30 41.55,0 75,-13.37999 75,-30 L 290,680.26321 c -5e-5,-0.47798 -0.039,-0.96514 -0.0938,-1.4375 -0.005,-0.0409 0.005,-0.0842 -6e-5,-0.125 0.0509,-1.13893 0.0937,-2.28557 0.0937,-3.4375 l -1e-5,-160.00001 c 0,-32.77422 -20.8167,-60.49644 -50,-70.74999 l 1e-5,-94.25 c -1e-5,-5.54001 -4.46001,-10 -10.00002,-10.00001 l -29.99998,1e-5 z"
       id="rect2987"
       inkscape:connector-curvature="0" />
    <path
       id="path3018"
       d="m 150.03272,521.31268 -1e-5,236.00001 c 0,10 25,24 65,24 35,0 65,-14 65,-24 l 10e-6,-206.00001 c -30.00001,10.00001 -120.00001,-10 -130,-30 z"
       style="color:#000000;fill:#801125;fill-opacity:0.94117647;fill-rule:nonzero;stroke:none;stroke-width:7;marker:none;visibility:visible;display:inline;overflow:visible;enable-background:accumulate"
       inkscape:connector-curvature="0"
       sodipodi:nodetypes="ccsccc" />
    <path
       inkscape:connector-curvature="0"
       id="path3899"
       d="m 661.82801,409.21787 c 4.53812,3.17765 5.63337,9.38918 2.45577,13.92728 l -54.05958,77.2051 c 18.02437,25.13806 19.17558,59.78672 0.37706,86.6338 L 518.82902,718.0484 c -0.6607,0.94359 -1.35355,1.85827 -2.04842,2.76209 -0.0254,0.0329 -0.0462,0.07 -0.0716,0.10239 -0.22586,0.41844 -0.4735,0.83979 -0.7477,1.2313 l -45.88612,65.53217 c -9.53283,13.61432 -44.60791,5.3884 -78.64367,-18.44368 -34.03577,-23.83209 -53.76197,-53.97846 -44.22912,-67.59279 l 45.88606,-65.53217 c 0.27421,-0.3915 0.58552,-0.76823 0.90137,-1.12372 0.0276,-0.0307 0.0439,-0.072 0.0717,-0.10239 0.61157,-0.96215 1.23419,-1.92598 1.89492,-2.8696 l 91.77214,-131.06432 c 18.79852,-26.84706 51.75137,-37.61581 81.53812,-29.27616 l 54.05957,-77.20509 c 3.17765,-4.5381 9.38918,-5.63337 13.92732,-2.45577 l 24.57453,17.2073 z"
       style="color:#000000;fill:none;stroke:#ffffff;stroke-width:7;stroke-opacity:1;marker:none;visibility:visible;display:inline;overflow:visible;enable-background:accumulate" />
    <path
       sodipodi:nodetypes="ccsccc"
       inkscape:connector-curvature="0"
       style="color:#000000;fill:#801125;fill-opacity:0.94117647;fill-rule:nonzero;stroke:none;stroke-width:7;marker:none;visibility:visible;display:inline;overflow:visible;enable-background:accumulate"
       d="m 533.48986,683.24064 -69.36721,95.44509 c -5.73574,8.1915 -34.81821,6.13938 -67.5843,-16.80366 -28.67033,-20.07518 -44.64125,-49.56974 -38.90547,-57.76129 l 36.1644,-52.18514 z"
       id="path3901" />
    <path
       style="font-size:medium;font-style:normal;font-variant:normal;font-weight:normal;font-stretch:normal;text-indent:0;text-align:start;text-decoration:none;line-height:normal;letter-spacing:normal;word-spacing:normal;text-transform:none;direction:ltr;block-progression:tb;writing-mode:lr-tb;text-anchor:start;baseline-shift:baseline;color:#000000;fill:#a51a36;fill-opacity:0.99607843;stroke:none;stroke-width:7;marker:none;visibility:visible;display:inline;overflow:visible;enable-background:accumulate;font-family:Sans;-inkscape-font-specification:Sans"
       d="m 1137.75,-416.125 c -52.7222,0 -107.464,4.87868 -137.875,15.1875 l -1.375,0.4375 -0.625,1.3125 C 877.10977,-157.65704 998,44.15625 998,44.15625 l 0.5,0.875 0.90625,0.4375 c 10.72275,5.49884 29.35855,9.10623 52.53125,11.625 23.1727,2.51877 50.7064,3.78125 78.3125,3.78125 27.6061,0 55.2685,-1.26307 78.6875,-3.78125 23.419,-2.51818 42.4368,-6.15132 53.5937,-11.59375 l 0.9376,-0.4375 0.5312,-0.90625 c 0,0 120.8902,-201.81329 0.125,-443.34375 l -0.5312,-1.0625 -1.0626,-0.53125 c -11.0561,-5.39327 -28.882,-9.07294 -50.75,-11.59375 -21.8679,-2.52081 -47.6701,-3.75 -74.0312,-3.75 z m 0,7 c 26.1389,0 51.7117,1.23956 73.2188,3.71875 20.855,2.40404 37.8389,6.07893 47.4687,10.5 116.6203,234.64302 3.2778,429.08857 0.094,434.46875 -9.5849,4.39942 -27.8812,8.14718 -50.3437,10.5625 -23.081,2.48182 -50.5436,3.75 -77.9375,3.75 -27.3939,0 -54.7352,-1.26877 -77.5625,-3.75 -22.2262,-2.41589 -40.1782,-6.17987 -49.2187,-10.53125 -3.1087,-5.2508 -116.50382,-199.67417 0,-434.3125 28.9098,-9.4257 82.7454,-14.40625 134.2812,-14.40625 z"
       id="path3057"
       inkscape:connector-curvature="0" />
    <path
       style="color:#000000;fill:#a51a36;fill-opacity:0.99607843;fill-rule:nonzero;stroke:none;stroke-width:7;marker:none;visibility:visible;display:inline;overflow:visible;enable-background:accumulate"
       d="m 1120,-411.63782 -80,5 -40,10 -10,30 285,-1 -5,-4 -10,-25 -60,-15 z m -170,154 0,20 360,0 0,-20 z m 0,141 0,19 360,0 0,-19 z m 40,139 0,5 10,15 60,15 80,0 80,-5 40,-10 10,-20 z"
       id="rect3827"
       inkscape:connector-curvature="0"
       sodipodi:nodetypes="cccccccccccccccccccccccccccc" />
    <rect
       style="color:#000000;fill:#a51a36;fill-opacity:0.99607843;fill-rule:nonzero;stroke:none;stroke-width:7;marker:none;visibility:visible;display:inline;overflow:visible;enable-background:accumulate"
       id="rect3879"
       width="230"
       height="10"
       x="1015"
       y="-397.63782"
       ry="5"
       rx="45" />
    <path
       sodipodi:nodetypes="cscssccsssssccsscsscc"
       style="color:#000000;fill:none;stroke:#000000;stroke-width:3;stroke-miterlimit:4;stroke-opacity:1;stroke-dasharray:none;marker:none;visibility:visible;display:inline;overflow:visible;enable-background:accumulate;opacity:0.25"
       d="m 1218.5001,1059.2622 c -1.108,0 -2,0.892 -2,2 l 0,20.45 c -5.8367,2.0507 -10,7.5951 -10,14.15 l 0,32 c 0,0.2304 0.01,0.4597 0.019,0.6875 4e-4,0.01 -4e-4,0.017 0,0.025 -0.011,0.095 -0.019,0.1919 -0.019,0.2875 l 0,16 c 0,3.324 6.69,6 15,6 8.31,0 15,-2.676 15,-6 l 0,-16 c 0,-0.096 -0.01,-0.1931 -0.019,-0.2875 0,-0.01 0,-0.017 0,-0.025 0.01,-0.2278 0.019,-0.4571 0.019,-0.6875 l 0,-32 c 0,-6.5549 -4.1634,-12.0993 -10,-14.15 l 0,-20.45 c 0,-1.108 -0.892,-2 -2,-2 l -6,0 z"
       inkscape:connector-curvature="0" />
    <path
       id="path5919"
       d="m 1221,1085.3622 c -4,0 -10,4 -10,10 l 0,47 c 0,2 4,4 11,4 6,0 10,-2 10,-4 l 0,-47 c 0,-6 -6,-10 -10,-10 l -1,0 z"
       style="color:#000000;fill:#801125;fill-opacity:1;fill-rule:nonzero;stroke:none;stroke-width:7;marker:none;visibility:visible;display:inline;overflow:visible;enable-background:accumulate"
       inkscape:connector-curvature="0" />
    <path
       inkscape:connector-curvature="0"
       d="m 1319.9764,1080.6375 c -0.7269,-0.8362 -1.9853,-0.9242 -2.8215,-0.1973 l -15.4338,13.4164 c -5.3769,-3.0596 -12.2927,-2.5642 -17.2397,1.7361 l -24.1507,20.9939 c -0.1739,0.1512 -0.3411,0.3084 -0.5066,0.4652 -0.01,0 -0.013,0.011 -0.019,0.016 -0.079,0.054 -0.1572,0.1118 -0.2293,0.1744 l -12.0754,10.497 c -2.5086,2.1807 -0.1392,8.9854 5.3126,15.257 5.4519,6.2716 11.8605,9.565 14.3692,7.3843 l 12.0753,-10.497 c 0.072,-0.063 0.1391,-0.1342 0.2046,-0.2029 0.01,0 0.013,-0.011 0.019,-0.016 0.1785,-0.1419 0.3574,-0.2856 0.5313,-0.4368 l 24.1507,-20.9938 c 4.947,-4.3004 6.4,-11.08 4.1186,-16.8304 l 15.4338,-13.4164 c 0.8362,-0.7269 0.9242,-1.9853 0.1973,-2.8215 l -3.9364,-4.5283 z"
       style="color:#000000;fill:none;stroke:#000000;stroke-width:3;stroke-miterlimit:4;stroke-opacity:1;stroke-dasharray:none;marker:none;visibility:visible;display:inline;overflow:visible;enable-background:accumulate;opacity:0.25"
       sodipodi:nodetypes="cscssccsssssccsscsscc" />
    <path
       inkscape:connector-curvature="0"
       style="color:#000000;fill:#801125;fill-opacity:1;fill-rule:nonzero;stroke:none;stroke-width:7;marker:none;visibility:visible;display:inline;overflow:visible;enable-background:accumulate"
       d="m 1301.9186,1099.6474 c -2.6242,-3.0189 -9.5794,-4.9229 -14.1077,-0.9866 l -35.4713,30.8348 c -1.5094,1.3122 -0.3946,5.6431 4.1978,10.9261 3.9363,4.5282 8.07,6.235 9.5794,4.9228 l 35.4714,-30.8347 c 4.5282,-3.9364 3.6107,-11.0889 0.9865,-14.1077 l -0.6561,-0.7547 z"
       id="path5923" />
    <path
       sodipodi:nodetypes="cscssccsssssccsscsscc"
       style="color:#000000;fill:none;stroke:#000000;stroke-width:3;stroke-miterlimit:4;stroke-opacity:1;stroke-dasharray:none;marker:none;visibility:visible;display:inline;overflow:visible;enable-background:accumulate;opacity:0.25"
       d="m 1403.3509,1133.5011 c 0.019,-1.1079 -0.8569,-2.0152 -1.9646,-2.0346 l -20.447,-0.3569 c -1.9486,-5.8715 -7.4196,-10.131 -13.9734,-10.2454 l -31.9949,-0.5584 c -0.2305,0 -0.46,9e-4 -0.6879,0.01 -0.01,0 -0.016,0 -0.025,0 -0.095,-0.013 -0.1914,-0.022 -0.287,-0.024 l -15.9976,-0.2793 c -3.3235,-0.058 -6.1158,6.5843 -6.2608,14.893 -0.1451,8.3088 2.4137,15.0444 5.7372,15.1025 l 15.9975,0.2792 c 0.096,0 0.1933,-0.01 0.2879,-0.014 0.012,0 0.016,9e-4 0.025,0 0.2275,0.014 0.4567,0.027 0.6871,0.031 l 31.9951,0.5584 c 6.5538,0.1144 12.1701,-3.9516 14.3222,-9.7515 l 20.4469,0.3569 c 1.108,0.019 2.0154,-0.8569 2.0347,-1.9648 l 0.1047,-5.9991 z"
       inkscape:connector-curvature="0" />
    <path
       id="path5927"
       d="m 1377.2113,1135.5452 c 0.07,-3.9994 -3.8249,-10.0683 -9.8239,-10.173 l -46.9929,-0.8203 c -1.9997,-0.035 -4.0692,3.9296 -4.1918,10.9283 -0.1048,5.9991 1.8251,10.0334 3.8249,10.0684 l 46.9928,0.8202 c 5.9991,0.1047 10.1032,-5.8245 10.1729,-9.824 l 0.017,-0.9998 z"
       style="color:#000000;fill:#801125;fill-opacity:1;fill-rule:nonzero;stroke:none;stroke-width:7;marker:none;visibility:visible;display:inline;overflow:visible;enable-background:accumulate"
       inkscape:connector-curvature="0" />
    <path
       inkscape:connector-curvature="0"
       d="m 1218.5001,1209.0711 c -1.108,0 -2,0.892 -2,2 l 0,20.45 c -5.8367,2.0507 -10,7.5951 -10,14.15 l 0,32 c 0,0.2304 0.01,0.4597 0.019,0.6875 4e-4,0.01 -4e-4,0.017 0,0.025 -0.011,0.095 -0.019,0.1919 -0.019,0.2875 l 0,16 c 0,3.324 6.69,6 15,6 8.31,0 15,-2.676 15,-6 l 0,-16 c 0,-0.096 -0.01,-0.1931 -0.019,-0.2875 0,-0.01 0,-0.017 0,-0.025 0.01,-0.2278 0.019,-0.4571 0.019,-0.6875 l 0,-32 c 0,-6.5549 -4.1634,-12.0993 -10,-14.15 l 0,-20.45 c 0,-1.108 -0.892,-2 -2,-2 l -6,0 z"
       style="opacity:0.25;color:#000000;fill:none;stroke:#000000;stroke-width:3;stroke-miterlimit:4;stroke-opacity:1;stroke-dasharray:none;marker:none;visibility:visible;display:inline;overflow:visible;enable-background:accumulate"
       sodipodi:nodetypes="cscssccsssssccsscsscc"
       id="path6709" />
    <path
       sodipodi:nodetypes="cscssccsssssccsscsscc"
       style="opacity:0.25;color:#000000;fill:none;stroke:#000000;stroke-width:3;stroke-miterlimit:4;stroke-opacity:1;stroke-dasharray:none;marker:none;visibility:visible;display:inline;overflow:visible;enable-background:accumulate"
       d="m 1319.9764,1230.4464 c -0.7269,-0.8362 -1.9853,-0.9242 -2.8215,-0.1973 l -15.4338,13.4164 c -5.3769,-3.0596 -12.2927,-2.5642 -17.2397,1.7361 l -24.1507,20.9939 c -0.1739,0.1512 -0.3411,0.3084 -0.5066,0.4652 -0.01,0 -0.013,0.011 -0.019,0.016 -0.079,0.054 -0.1572,0.1118 -0.2293,0.1744 l -12.0754,10.497 c -2.5086,2.1807 -0.1392,8.9854 5.3126,15.257 5.4519,6.2716 11.8605,9.565 14.3692,7.3843 l 12.0753,-10.497 c 0.072,-0.063 0.1391,-0.1342 0.2046,-0.2029 0.01,0 0.013,-0.011 0.019,-0.016 0.1785,-0.1419 0.3574,-0.2856 0.5313,-0.4368 l 24.1507,-20.9938 c 4.947,-4.3004 6.4,-11.08 4.1186,-16.8304 l 15.4338,-13.4164 c 0.8362,-0.7269 0.9242,-1.9853 0.1973,-2.8215 l -3.9364,-4.5283 z"
       inkscape:connector-curvature="0"
       id="path6713" />
    <path
       style="font-size:medium;font-style:normal;font-variant:normal;font-weight:normal;font-stretch:normal;text-indent:0;text-align:start;text-decoration:none;line-height:normal;letter-spacing:normal;word-spacing:normal;text-transform:none;direction:ltr;block-progression:tb;writing-mode:lr-tb;text-anchor:start;baseline-shift:baseline;opacity:0.25;color:#000000;fill:#000000;fill-opacity:1;stroke:none;stroke-width:3;marker:none;visibility:visible;display:inline;overflow:visible;enable-background:accumulate;font-family:Sans;-inkscape-font-specification:Sans"
       d="m 1317.3122,1269.6755 c -1.334,-0.023 -2.5455,0.6541 -3.4688,1.5937 -0.9232,0.9397 -1.6329,2.1886 -2.25,3.6563 -1.234,2.9355 -1.2993,5.4467 -1.3746,9.762 -0.075,4.3154 0.088,9.2917 1.2187,12.2684 0.5654,1.4884 1.2664,2.7475 2.1562,3.7188 0.8899,0.9713 2.0724,1.6642 3.4063,1.6875 l 49,0 c 6.7848,0.1185 13,-4 15.6244,-9.9249 l 19.1564,-0.076 c 1.9122,0.033 3.5292,-1.5247 3.5625,-3.4374 -0.4267,-2.099 1.043,-4.791 -0.3433,-6.5618 -0.022,-1.8681 -1.1206,-3.0075 -3,-3 l -19.1563,0.076 c -2.4292,-5.9017 -8.0593,-9.9575 -14.8437,-10.0759 l -49.6873,0.3141 z m -0.062,3 49.7498,-0.3133 c 5.9187,0.1033 10.7786,3.7631 12.5311,9.0438 l 0.3126,1 1.0624,0 20.0627,-0.045 c 0.3028,0.01 0.474,0.1964 0.4688,0.5 l 0,0.031 0,0.062 -0.094,5.9062 c -0.01,0.3031 -0.1962,0.5053 -0.5,0.5 l -20.0627,0.045 -1.0624,0 -0.375,1 c -1.9356,5.2163 -7.4248,9.0604 -13.3435,8.957 l -48.9684,-8e-4 c -0.3279,-0.01 -0.6987,-0.1511 -1.2188,-0.7187 -0.5201,-0.5677 -1.0909,-1.5399 -1.5625,-2.7813 -0.9432,-2.4828 -1.101,-7.1188 -1.0312,-11.1122 0.07,-3.9934 0.095,-6.2199 1.1246,-8.6682 0.5147,-1.2242 1.1167,-2.1697 1.6563,-2.7188 0.5396,-0.5491 0.9844,-0.6427 1.3122,-0.637 z"
       id="path6717"
       inkscape:connector-curvature="0"
       sodipodi:nodetypes="ccccccccccccscccccccccccccccccccccsccscc" />
    <rect
       y="1162.3622"
       x="922"
       height="60"
       width="60"
       id="rect8735"
       style="color:#000000;fill:#eeeeee;fill-opacity:1;fill-rule:nonzero;stroke:none;stroke-width:3;marker:none;visibility:visible;display:inline;overflow:visible;enable-background:accumulate"
       inkscape:export-filename="../missing.png"
       inkscape:export-xdpi="180"
       inkscape:export-ydpi="180" />
    <rect
       inkscape:export-ydpi="180"
       inkscape:export-xdpi="180"
       inkscape:export-filename="../missing.png"
       style="color:#000000;fill:#822033;fill-opacity:1;fill-rule:nonzero;stroke:none;stroke-width:3;marker:none;visibility:visible;display:inline;overflow:visible;enable-background:accumulate"
       id="rect7089"
       width="60"
       height="60"
       x="982"
       y="1162.3622" />
    <rect
       y="1222.3622"
       x="982"
       height="60"
       width="60"
       id="rect7091"
       style="color:#000000;fill:#8c9a39;fill-opacity:1;fill-rule:nonzero;stroke:none;stroke-width:3;marker:none;visibility:visible;display:inline;overflow:visible;enable-background:accumulate"
       inkscape:export-filename="../missing.png"
       inkscape:export-xdpi="180"
       inkscape:export-ydpi="180" />
    <rect
       inkscape:export-ydpi="180"
       inkscape:export-xdpi="180"
       inkscape:export-filename="../missing.png"
       style="color:#000000;fill:#c6c935;fill-opacity:1;fill-rule:nonzero;stroke:none;stroke-width:3;marker:none;visibility:visible;display:inline;overflow:visible;enable-background:accumulate"
       id="rect7093"
       width="60"
       height="60"
       x="982"
       y="1282.3622" />
  </g>
</svg>
